# xmcd
#
# Track frame offsets: 
#        150
#        13785
#        26986
#        44308
#        60303
#        73578
#        86176
#        101758
#        116046
#        128873
#        144581
#        161668
#        175974
#        189759
#        202157
#        214339
#        229705
#
# Disc length: 3264 seconds
#
# Revision: 0
# Processed by: cddbd v1.5.2PL0 Copyright (c) Steve Scherf et al.
# Submitted via: ExactAudioCopy v1.1
#
DISCID=fb0cbe11
DTITLE=Various Artist - De Ultieme Feesten Als De Beesten Top 100 2019 - CD 5
DYEAR=2019
DGENRE=Pop-Folk
TTITLE0=Snollebollekes - Snollebolleke
TTITLE1=DJ Maurice Feat. Snollebollekes - De Vloer Is Lava
TTITLE2=Jebroer Feat. Stepherd, Skinto and Jayh - Banaan (Bigger Better 
TTITLE2=Anthem)
TTITLE3=Dimitri Vegas and Like Mike Vs. Ummet Ozcan - The Hum
TTITLE4=Van Echelpoel - Ziet Em Duun
TTITLE5=Michel Teló - Ai Se Eu Te Pego!
TTITLE6=Marco Tornado - Oh Sabine!
TTITLE7=Steve Tielens - Het Is Weer Couckenbak
TTITLE8=Lawineboys - Joost
TTITLE9=Swoop - De Sardienendans
TTITLE10=D-Me - Oh O O O Oh Ooh (A.K.A. 7 Nation Army)
TTITLE11=Nicole and Hugo - Goeiemorgen, Morgen (Regi Mix)
TTITLE12=Yves Segers - Een Beetje Gay (Dat Is Okay)
TTITLE13=André Van Duin - Ik Heb Hele Grote Bloemkoole
TTITLE14=Feestteam - Ik Neem Je Mee
TTITLE15=Jebroer Feat. DJ Paul Elstak and Dr Phunk - Kind Van De Duivel
TTITLE16=Zware Jongens Feat. DJ Daroon - Jodeljump
EXTD=
EXTT0=
EXTT1=
EXTT2=
EXTT3=
EXTT4=
EXTT5=
EXTT6=
EXTT7=
EXTT8=
EXTT9=
EXTT10=
EXTT11=
EXTT12=
EXTT13=
EXTT14=
EXTT15=
EXTT16=
PLAYORDER=
